<?xml version="1.0" encoding="UTF-8"?>
<svg id="Camada_2" data-name="Camada 2" xmlns="http://www.w3.org/2000/svg" viewBox="0 0 135.72 135.72">
  <defs>
    <style>
      .cls-1 {
        fill: #fff;
      }
    </style>
  </defs>
  <g id="Camada_1-2" data-name="Camada 1">
    <g>
      <path class="cls-1" d="M135.72,67.86C135.72,30.38,105.34,0,67.86,0S0,30.38,0,67.86s30.38,67.86,67.86,67.86,67.86-30.38,67.86-67.86Z"/>
      <path d="M67.86,29.66c12.44,0,13.91.05,18.83.27,4.54.21,7.01.97,8.65,1.61,2.18.85,3.73,1.86,5.36,3.48,1.63,1.63,2.64,3.18,3.48,5.36.64,1.64,1.4,4.11,1.61,8.65.22,4.91.27,6.39.27,18.83s-.05,13.91-.27,18.83c-.21,4.54-.97,7.01-1.61,8.65-.85,2.18-1.86,3.73-3.48,5.36-1.63,1.63-3.18,2.64-5.36,3.48-1.64.64-4.11,1.4-8.65,1.61-4.91.22-6.39.27-18.83.27s-13.92-.05-18.83-.27c-4.54-.21-7.01-.97-8.65-1.61-2.18-.85-3.73-1.86-5.36-3.48-1.63-1.63-2.64-3.18-3.48-5.36-.64-1.64-1.4-4.11-1.61-8.65-.22-4.91-.27-6.39-.27-18.83s.05-13.91.27-18.83c.21-4.54.97-7.01,1.61-8.65.85-2.18,1.86-3.73,3.48-5.36,1.63-1.63,3.18-2.64,5.36-3.48,1.64-.64,4.11-1.4,8.65-1.61,4.91-.22,6.39-.27,18.83-.27M67.86,21.27c-12.65,0-14.24.05-19.21.28-4.96.23-8.35,1.01-11.31,2.16-3.07,1.19-5.66,2.78-8.25,5.38-2.59,2.59-4.19,5.19-5.38,8.25-1.15,2.96-1.94,6.35-2.16,11.31-.23,4.97-.28,6.56-.28,19.21s.05,14.24.28,19.21c.23,4.96,1.01,8.35,2.16,11.31,1.19,3.07,2.78,5.66,5.38,8.25,2.59,2.59,5.19,4.19,8.25,5.38,2.96,1.15,6.35,1.94,11.31,2.17,4.97.23,6.56.28,19.21.28s14.24-.05,19.21-.28c4.96-.23,8.35-1.01,11.31-2.17,3.07-1.19,5.66-2.78,8.25-5.38,2.59-2.59,4.19-5.19,5.38-8.25,1.15-2.96,1.94-6.35,2.17-11.31.23-4.97.28-6.56.28-19.21s-.05-14.24-.28-19.21c-.23-4.96-1.01-8.35-2.17-11.31-1.19-3.07-2.78-5.66-5.38-8.25-2.59-2.59-5.19-4.19-8.25-5.38-2.96-1.15-6.35-1.94-11.31-2.16-4.97-.23-6.56-.28-19.21-.28Z"/>
      <path d="M67.86,43.93c-13.22,0-23.93,10.71-23.93,23.93s10.71,23.93,23.93,23.93,23.93-10.71,23.93-23.93-10.71-23.93-23.93-23.93ZM67.86,83.39c-8.58,0-15.53-6.95-15.53-15.53s6.95-15.53,15.53-15.53,15.53,6.95,15.53,15.53-6.95,15.53-15.53,15.53Z"/>
      <path d="M92.73,48.58c3.09,0,5.59-2.5,5.59-5.59s-2.5-5.59-5.59-5.59-5.59,2.5-5.59,5.59,2.5,5.59,5.59,5.59Z"/>
    </g>
  </g>
</svg>