<?xml version="1.0" encoding="UTF-8"?>
<svg id="Camada_2" data-name="Camada 2" xmlns="http://www.w3.org/2000/svg" viewBox="0 0 302.77 155.28">
  <defs>
    <style>
      .cls-1 {
        fill: #95c11f;
      }

      .cls-2 {
        fill: #1c1c1a;
      }
    </style>
  </defs>
  <g id="Camada_1-2" data-name="Camada 1">
    <g>
      <g>
        <path class="cls-1" d="M297.3,0h.12l5.35,8.73c-.06.26-2.45,1.08-2.87,1.27-3.04,1.36-6.1,2.65-9.23,3.81-26.47,9.82-54.53,17.67-83.07,16.5-4.59-.19-9.29-.29-13.71-1.52-.67-1.09-1.62-2-2.24-3.13-.15-.27-.49-.63-.13-.84,3.51.54,7.04.83,10.59.97,31.2,1.27,61.79-7.8,89.02-22.39,2.07-1.11,4.25-2.03,6.17-3.4Z"/>
        <path class="cls-1" d="M133.59,133.2c-.26-.26.83-4.06,1.09-4.58,6.28-3.6,13.34-6.46,20.25-8.65,18.74-5.94,38.76-8.87,58.37-9.62,11.17-.43,22.46-.63,33.62,0,.8.04,1.97-.14,2.68,0,.15.03.23.04.29.2.19.56-.33,1.81-.43,2.46-.23,1.39-.32,2.81-.56,4.2-.13.73-.37,2.35-.59,2.95-.04.11-.06.16-.18.2-.19.06-3.01-.51-3.53-.58-34.33-4.51-72.65-3.57-104.76,10.59-1.68.74-4.14,2.3-5.76,2.77-.16.05-.32.08-.49.06Z"/>
      </g>
      <g>
        <path class="cls-2" d="M46.26,60.49c.65.53,1.44.86,2.11,1.36,3.97,2.96,5.63,9.36,6.62,14.01,1.63,7.6,2.85,15.31,4.3,22.94.1,1.65-.05,2.41-1.7,2.93-1.84.58-8,.75-9.71-.04-1.15-.53-1.22-1.46-1.46-2.57-1.52-7.02-2.31-14.37-3.73-21.43-1-4.94-2.59-9.83-7.27-12.38-4.74-2.58-10.51-1.57-15.7-1.75-2.66,12.28-5.01,24.64-7.74,36.9-.19.37-.67.85-1.04,1.03-1.76.88-8.49,1.02-10.2.09-.36-.2-.67-.55-.74-.97,5.3-26.75,11.03-53.46,16.48-80.2.51-2.82,2.7-4.44,5.48-4.65,7.08-.52,14.79.41,21.93,0,14.07.57,25.5,6.03,23.3,22.16-1.57,11.54-10.21,19.32-20.93,22.57ZM21.78,54.01c5.51-.19,11.15.46,16.59-.53,7.69-1.39,14.13-6.25,15.65-14.23,1.92-10.06-4.2-13.47-13.17-13.84-4.35-.18-8.84.13-13.2.02l-5.86,28.58Z"/>
        <path class="cls-2" d="M136.76,95.44c-1.66,8.32-3.26,16.66-5.03,24.95-.27,1.28-.53,3.91-1.55,4.67-1.44,1.07-6.29,1.04-8.08.79-1.13-.16-2.7-.45-2.73-1.88l17.4-84.07c.17-.47.48-.8.9-1.05,1.51-.89,6.87-.98,8.47-.3.71.3.96.77.95,1.55l-2.04,10.12,1.17-1.7c12.24-15.39,39.46-17.24,40.85,7.63,1.05,18.72-9.23,45.67-30.88,46.86-8.15.45-13.42-1.76-19.08-7.37-.11-.11-.1-.27-.34-.21ZM163.9,46.96c-8.62.77-16.11,9.96-19.57,17.27-2.98,6.3-3.73,13.34-5.2,20.09,4.01,5.86,9.75,9.91,17.17,8.9,12.03-1.64,17.77-19.65,18.59-29.98.66-8.31-.51-17.21-10.99-16.28Z"/>
        <path class="cls-2" d="M225.65,37.19c13.1-.28,24.35,4.45,25.85,18.85,2.26,21.66-10.86,45.86-34.4,46.99-14.97.72-26.51-4.55-27.35-20.96-1.12-21.94,12.27-44.36,35.91-44.87ZM225.04,46.6c-14.18.34-21.4,14.7-22.86,27.17-1.06,9.1-.25,18.4,10.66,19.7,16.56,1.98,24.86-13.48,26.35-27.79,1.18-11.27-1.27-19.4-14.15-19.09Z"/>
        <path class="cls-2" d="M78.55,72.48c-.14.09-.58,2.94-.62,3.35-1,9.58,1.03,17.41,11.99,18.03,8.19.47,13.58-1.45,21.14-3.61,2.58-.74,2.87.24,2.68,2.69-.38,4.89-2.46,6.5-6.82,7.82-8.5,2.59-21.91,3.52-30.17-.04-12.29-5.29-12.17-19.8-9.75-31.08,4.16-19.37,18.04-33.94,38.88-32.36,9.7.73,19.58,6.39,18.2,17.52-1.24,9.99-10.79,14.15-19.47,16.03-8.59,1.86-17.3,1.69-26.05,1.66ZM80.61,64.16c6.85-.03,13.74.32,20.46-1.16,4.36-.96,10.57-3.18,11.08-8.43.81-8.34-8.68-9.3-14.74-8.07-8.66,1.76-14.34,9.62-16.81,17.66Z"/>
        <path class="cls-2" d="M289.7,95.4c-7.8,7.95-22.13,9.21-32.33,6.06-2.16-.66-7.52-2.76-7.92-5.26-.31-1.95.57-5.71,1.87-7.23,1.41-1.65,3.16.34,4.45,1.14,6.33,3.93,15.55,5.67,22.36,1.93,4.94-2.72,7.5-9.78,2.78-13.95-6.88-6.08-20.34-6.61-21.74-18.27-1.78-14.86,12.25-22.77,25.28-22.67,3.58.03,12.63,1.57,15.1,4.28,1.46,1.59.28,6.09-.77,7.78-.51.82-.75,1.1-1.79,1.02-1.21-.1-4.03-1.93-5.43-2.5-6.19-2.51-15.82-2.79-19.51,3.89-2.85,5.16-.44,8.63,4.08,11.22,6.05,3.47,12.69,4.69,16.99,10.82,4.5,6.43,1.73,16.48-3.43,21.75Z"/>
        <path class="cls-2" d="M206.56,142.85l1.22-1.28c1.73-1.7,5.87-2.53,7.17.02,1.46,2.89-1.23,9.55-1.45,12.8-.08.91-2.62.81-2.78.36-.07-.19-.02-.49,0-.7.23-2.67,2.16-7.89,1.76-10.23-.47-2.7-3.42-.89-4.51.37-2.64,3.02-1.96,6.8-3.14,10.17-.35,1.01-2.71.87-2.87.25l1.82-9.38c0-.72.15-2.41-.73-2.7-.96-.32-2.07.14-2.81.74-3.4,2.7-3.11,7.59-4.2,11.43-.32.47-2.27.53-2.63.08-.45-.57,2.54-12.69,2.72-14.34.52-.35,2.34-.52,2.41.28.04.44-.38,1.18-.18,1.65,2.03-2.7,7.48-3.87,8.22.49Z"/>
        <path class="cls-2" d="M238.47,140.29h8.95c.1,0,.5.57.4.76l-2.66,13.35c-.19.72-1.26.73-1.88.68-.36-.03-.98-.08-.92-.54.59-3.96,1.65-7.84,2.2-11.8h-6.58l-1.57,7.77c0,.93-.33,2.09.91,2.24.88.11,1.55-.43,2.41-.36.46,1.88-.51,2.69-2.3,2.82-7.22.53-2.33-8.67-2.38-12.47-1.34-.06-2.35.43-2.04-1.38.27-1.54,1.48-.97,2.64-1.07.2-.7.35-2.99.79-3.42.36-.35,2.45-.41,2.61.09.17.52-.62,2.64-.59,3.34Z"/>
        <path class="cls-2" d="M160.24,134.83c1.55-.09,3.45.26,4.76,1.14,1.02.68,1.16,1.55.6,2.66-.62,1.24-1.25.08-2.02-.39-1.39-.86-3.3-1.03-4.85-.52-3.9,1.28-6.15,7.79-5.38,11.52.71,3.42,4.04,3.96,6.91,2.84,1.2-.47,3.65-2.6,2.75.56-.37,1.3-2.27,1.96-3.48,2.26-14.2,3.54-11.16-19.4.7-20.07Z"/>
        <path class="cls-2" d="M269.99,139.96c8.87-.54,6.9,11.2,1.77,14.24-3.39,2-9.1,1.42-9.54-3.34-.46-5.02,2.29-10.56,7.77-10.9ZM269.62,142.4c-3.45.43-4.96,5.45-4.43,8.4.33,1.84,2.27,2.32,3.87,1.91,3.13-.79,4.24-5.14,4-7.97-.17-1.94-1.67-2.57-3.44-2.34Z"/>
        <path class="cls-2" d="M173.4,139.96c5.63-.35,6.93,3.73,5.72,8.54-1.17,4.63-5.07,7.74-9.95,6.51-3.87-.97-3.91-5.04-3.13-8.28.88-3.63,3.5-6.54,7.37-6.78ZM173.03,142.4c-3.31.45-4.87,5.29-4.42,8.16.42,2.64,3.47,2.84,5.3,1.51,2.76-2.01,4.72-10.44-.87-9.68Z"/>
        <path class="cls-2" d="M220.94,148.25c-.19.16-.16,2.21-.1,2.58.41,2.89,4.28,2.07,6.23,1.55.58-.15,1.65-.87,1.64.3,0,1.35-.77,1.8-1.91,2.12-3.01.85-7.82.88-8.74-2.89-.91-3.73,1.08-9.36,4.61-11.15,3.12-1.57,8.84-1,8.23,3.62-.51,3.88-7.08,4.01-9.96,3.87ZM221.54,146.15c1.56.02,5.63.08,6.38-1.6.52-1.16-.18-2.1-1.36-2.28-2.49-.37-4.6,1.52-5.02,3.88Z"/>
        <path class="cls-2" d="M284.24,139.96c.98-.06,3.18.21,3.92.89.49.45.17,2.21-.32,2.36-.29.09-2.42-1.1-3.74-.95-1.6.18-2.99,1.93-1.54,3.23,1.43,1.28,4.41,1.52,4.74,4.04.66,4.96-5.33,6.81-9.12,5.12-1.18-.53-1.52-1.06-1.01-2.36.51-1.29,1.31-.21,2.1.16,1.87.88,5.57.63,5.11-2.2-.28-1.72-4.97-1.94-5.24-4.89-.29-3.22,2.05-5.23,5.1-5.41Z"/>
        <path class="cls-2" d="M187.51,149.62c-1.35-1.5-4.6-1.47-4.94-4.27-.51-4.26,4-6.05,7.54-5.12,1.17.31,1.91.56,1.67,1.93-.31,1.84-1.18.76-2.16.4-1.34-.49-3.21-.54-3.96.91-1.07,2.06,1.57,2.62,2.87,3.37.96.55,2.02,1.39,2.18,2.58.66,4.88-4.67,6.79-8.58,5.43-1.25-.43-1.99-.92-1.58-2.33.47-1.65,1.2-.52,2.05-.1,1.45.72,4.36.86,5.1-.91.27-.66.32-1.32-.19-1.88Z"/>
        <path class="cls-2" d="M256.22,140.08c1.26-.15,2.81-.06,3.97.47.28.13,1.15.68,1.28.91.35.61.01,2.37-.78,2.38-.55,0-.73-.48-1.12-.72-4.6-2.85-7.35,3.18-7.09,6.99.2,2.92,2.74,3.17,4.98,2.09.97-.47,2.4-2.15,2.19.12-.24,2.59-4.32,3.12-6.36,2.84-5.41-.73-3.9-8.45-1.9-11.74,1.01-1.65,2.86-3.12,4.82-3.35Z"/>
        <path class="cls-2" d="M225.08,138.32c-.12-.19.04-.56.13-.76.28-.63,1.72-2.71,2.19-3.3.41-.51.59-.72,1.27-.8.44-.05,1.86-.09,1.87.53,0,.49-2.87,3.59-3.35,4.22-.25.38-2,.29-2.12.11Z"/>
        <path class="cls-2" d="M247.21,134.58c.47-.07,1.43-.05,1.72.41.36.56.05,2.04-.41,2.5-.54.54-2.7.66-2.87-.19-.24-1.24.19-2.53,1.55-2.71Z"/>
      </g>
    </g>
  </g>
</svg>