<?xml version="1.0" encoding="UTF-8"?>
<svg id="Camada_2" data-name="Camada 2" xmlns="http://www.w3.org/2000/svg" viewBox="0 0 135.72 135.72">
  <defs>
    <style>
      .cls-1 {
        fill: #fff;
      }
    </style>
  </defs>
  <g id="Camada_1-2" data-name="Camada 1">
    <g>
      <path class="cls-1" d="M135.72,67.86C135.72,30.38,105.34,0,67.86,0S0,30.38,0,67.86s30.38,67.86,67.86,67.86,67.86-30.38,67.86-67.86Z"/>
      <path d="M114.6,44.62c-1.11-4.15-4.38-7.43-8.54-8.54-7.53-2.02-37.72-2.02-37.72-2.02,0,0-30.2,0-37.72,2.02-4.15,1.11-7.43,4.38-8.54,8.54-2.02,7.53-2.02,23.24-2.02,23.24,0,0,0,15.71,2.02,23.24,1.11,4.15,4.38,7.43,8.54,8.54,7.53,2.02,37.72,2.02,37.72,2.02,0,0,30.2,0,37.72-2.02,4.15-1.11,7.43-4.38,8.54-8.54,2.02-7.53,2.02-23.24,2.02-23.24,0,0,0-15.71-2.02-23.24ZM58.69,82.34v-28.97l25.09,14.49-25.09,14.48Z"/>
    </g>
  </g>
</svg>