<?xml version="1.0" encoding="UTF-8"?>
<svg id="Camada_2" data-name="Camada 2" xmlns="http://www.w3.org/2000/svg" viewBox="0 0 215.9 186.22">
  <defs>
    <style>
      .cls-1, .cls-2 {
        fill: #95c11f;
      }

      .cls-3, .cls-4 {
        fill: #5d7326;
      }

      .cls-2, .cls-4 {
        fill-rule: evenodd;
      }
    </style>
  </defs>
  <g id="Camada_1-2" data-name="Camada 1">
    <g>
      <path class="cls-1" d="M118.97,172.91v-33.25c0-9.44,7.68-17.12,17.12-17.12h4.61l12.17-18.25c.71-1.06,1.9-1.7,3.17-1.7h19.02v-22.08H7.74v92c0,7.57,6.13,13.7,13.7,13.7h104c-3.92-3.14-6.48-7.9-6.48-13.3Z"/>
      <g id="film-slate--pictures-photo-film-slate">
        <path id="Rectangle_1683" data-name="Rectangle 1683" class="cls-3" d="M7.72,80.51l161.62-43.3-7.25-27.05c-1.96-7.31-9.47-11.65-16.78-9.69L10.16,36.68C2.85,38.64-1.49,46.15.47,53.46l7.25,27.05Z"/>
        <path id="Intersect" class="cls-2" d="M97.27,56.52c.01-.06.02-.11.04-.17l10.91-45.95,18.8-5.04s-.02.09-.03.13l-10.92,45.98-18.8,5.04ZM57.89,67.07l10.64-45.85c.01-.06.03-.13.04-.19l-18.75,5.02-10.54,45.42c-.05.21-.09.41-.12.62l18.73-5.02Z"/>
        <path id="Rectangle_1682_Stroke_" data-name="Rectangle 1682 (Stroke)" class="cls-4" d="M37.53,149.06c0-4.73,3.83-8.56,8.56-8.56h18.7c4.73,0,8.56,3.83,8.56,8.56s-3.83,8.56-8.56,8.56h-18.7c-4.73,0-8.56-3.83-8.56-8.56Z"/>
      </g>
      <g>
        <path id="Vector" class="cls-3" d="M215.9,139.66c0-7.35-5.96-13.3-13.3-13.3h-6.65l-13.3-19.95h-26.6l-13.3,19.95h-6.65c-7.35,0-13.3,5.96-13.3,13.3v33.25c0,7.35,5.96,13.3,13.3,13.3h66.51c7.35,0,13.3-5.96,13.3-13.3v-33.25Z"/>
        <path id="Vector_Stroke__2" data-name="Vector (Stroke)_2" class="cls-2" d="M156.04,152.96c0-7.35,5.96-13.3,13.3-13.3s13.3,5.96,13.3,13.3-5.96,13.3-13.3,13.3-13.3-5.96-13.3-13.3Z"/>
      </g>
    </g>
  </g>
</svg>