<?xml version="1.0" encoding="UTF-8"?>
<svg id="Camada_2" data-name="Camada 2" xmlns="http://www.w3.org/2000/svg" viewBox="0 0 199.92 198.04">
  <defs>
    <style>
      .cls-1 {
        fill: #95c11f;
      }

      .cls-2 {
        fill: #5d7326;
        fill-rule: evenodd;
      }
    </style>
  </defs>
  <g id="Camada_1-2" data-name="Camada 1">
    <g id="gift-2--reward-box-social-present-gift-media-rating-bow">
      <path id="Vector" class="cls-1" d="M185.89,183.34v-96.71H14.05v96.71c0,8.12,6.58,14.7,14.7,14.7h142.44c8.12,0,14.7-6.58,14.7-14.7Z"/>
      <path id="Union" class="cls-2" d="M47.79,44.26h36.83c-1.44-2.93-3.12-5.74-5.03-8.39-6.38-8.85-13.89-13.83-21.19-13.83-8.01,0-11.32,2.29-12.65,3.78-1.44,1.62-2.38,4.22-2.06,7.98.34,3.79,1.93,7.69,4.09,10.46h.01ZM23.43,44.26c-.86-2.77-1.42-5.63-1.69-8.52-.71-8.11,1.04-17.37,7.64-24.69C36.07,3.66,46.13.01,58.41.01,76.04.01,89.31,11.65,97.48,23c.85,1.19,1.69,2.42,2.48,3.67.79-1.25,1.62-2.48,2.5-3.67C110.61,11.62,123.9,0,141.52,0c12.29,0,22.34,3.64,29.03,11.07,6.58,7.3,8.35,16.56,7.64,24.69-.27,2.89-.83,5.75-1.69,8.52h8.73c8.12,0,14.7,6.58,14.7,14.7v12.95c0,8.12-6.58,14.7-14.7,14.7h-76.07v111.42h-18.37v-111.42H14.7c-8.12,0-14.7-6.58-14.7-14.7v-12.96c0-8.12,6.58-14.7,14.7-14.7h8.73ZM152.16,44.26c2.3-3.04,3.71-6.67,4.07-10.46.34-3.76-.59-6.38-2.04-7.98-1.34-1.48-4.64-3.78-12.65-3.78-7.3,0-14.81,5-21.19,13.81-2.01,2.79-3.67,5.67-5.03,8.41h36.85Z"/>
    </g>
  </g>
</svg>