<?xml version="1.0" encoding="UTF-8"?>
<svg id="Camada_2" data-name="Camada 2" xmlns="http://www.w3.org/2000/svg" viewBox="0 0 133.02 186.22">
  <defs>
    <style>
      .cls-1 {
        fill: #95c11f;
      }

      .cls-1, .cls-2 {
        fill-rule: evenodd;
      }

      .cls-2 {
        fill: #5d7326;
      }
    </style>
  </defs>
  <g id="Camada_1-2" data-name="Camada 1">
    <g>
      <path class="cls-1" d="M109.75,0H23.28C10.42,0,0,10.42,0,23.28v139.66c0,7.87,4.8,13.73,8.65,17,2.08,1.77,4.36,3.23,6.62,4.28,2.05.97,4.92,2,8.01,2h86.47c12.86,0,23.28-10.42,23.28-23.28V23.28c0-12.86-10.42-23.28-23.28-23.28ZM66.51,109.07c-21.93,0-39.77-17.84-39.77-39.77s17.84-39.77,39.77-39.77,39.78,17.84,39.78,39.77-17.84,39.77-39.78,39.77Z"/>
      <path id="Union" class="cls-2" d="M66.51,33.34c19.86,0,35.96,16.1,35.96,35.96s-16.1,35.96-35.96,35.96-35.96-16.1-35.96-35.96,16.1-35.96,35.96-35.96Z"/>
      <path id="Intersect" class="cls-1" d="M75.5,104.13c-2.94.75-5.96,1.13-8.99,1.13-12.45,0-24.01-6.43-30.57-17.01,4.32-6.04,10.36-10.27,18.08-10.27,13.29,0,20.29,10.95,21.3,22.97.09,1.03.15,2.12.18,3.18h0ZM97.72,87.18c-3.89,6.76-9.85,12.08-17.01,15.16.15-.64.21-1.31.14-1.99-.55-6.61-2.77-13.33-7.11-18.53-.23-.28-.47-.55-.72-.82,7.09-3.59,15.65-2.44,21.56,2.88l3.15,3.31ZM66.38,61.53c0-6.37-5.16-11.53-11.53-11.53s-11.53,5.16-11.53,11.53,5.16,11.53,11.53,11.53,11.53-5.16,11.53-11.53ZM81.61,55.33c5.28,0,9.56,4.27,9.56,9.55,0,5.28-4.27,9.56-9.55,9.56h0c-5.28,0-9.56-4.28-9.56-9.55s4.28-9.55,9.56-9.55h0Z"/>
      <path id="Vector_Stroke_" data-name="Vector (Stroke)" class="cls-2" d="M49.88,139.66c0-5.51,4.47-9.98,9.98-9.98h13.3c5.51,0,9.98,4.47,9.98,9.98s-4.47,9.98-9.98,9.98h-13.3c-5.51,0-9.98-4.47-9.98-9.98Z"/>
    </g>
  </g>
</svg>