<?xml version="1.0" encoding="UTF-8"?>
<svg id="Camada_2" data-name="Camada 2" xmlns="http://www.w3.org/2000/svg" viewBox="0 0 135.72 135.72">
  <defs>
    <style>
      .cls-1 {
        fill: #fff;
      }

      .cls-2 {
        fill: #6b6b6b;
      }
    </style>
  </defs>
  <g id="Camada_1-2" data-name="Camada 1">
    <g>
      <path class="cls-1" d="M135.72,67.86C135.72,30.38,105.34,0,67.86,0S0,30.38,0,67.86s30.38,67.86,67.86,67.86,67.86-30.38,67.86-67.86Z"/>
      <path d="M52.13,92.23c.07.07.14.13.22.2.67.48,1.16,1.16,1.8,1.68,2,1.6,4.24,2.47,6.82,2.63,6.1.38,11.42-4.22,12.11-10.25.04-.29.02-.59.02-.88V31.11c0-.82.41-1.23,1.22-1.23h8.28c.26,0,.53-.05.76.11.02.02.03.03.05.04.13.14.17.31.21.49,1.06,4.9,3.64,8.8,7.68,11.75.25.18.46.41.7.61.18.15.35.3.53.45.65.37,1.11.97,1.68,1.44,2.24,1.86,4.76,3.15,7.57,3.87.25.06.53.06.71.29.01.02.03.03.05.04.16.18.14.4.14.61,0,3.2,0,6.4,0,9.61,0,.73-.1.77-.84.77-2.35,0-4.65-.31-6.93-.83-3.92-.9-7.54-2.49-10.89-4.69-.18-.11-.36-.36-.55-.27-.24.11-.11.42-.11.63,0,9.02.04,18.03-.02,27.05-.04,6.3-2.04,11.94-6.17,16.75-4.38,5.1-9.95,8.07-16.64,8.88-5.15.63-10.04-.3-14.68-2.6-.75-.37-1.47-.8-2.14-1.31-.21-.19-.42-.38-.63-.56-1.6-1.32-2.71-3.03-3.75-4.78-1.6-2.7-2.64-5.61-3.14-8.71-.29-1.77-.44-3.55-.34-5.35.32-5.77,2.26-10.93,5.98-15.38,3.12-3.73,7.02-6.35,11.62-7.92,1.92-.65,3.9-1.06,5.92-1.21.38-.03.75-.12,1.13-.09.18.01.36,0,.52.12.02.02.04.03.05.04.11.18.08.38.08.58v9.75c0,.11,0,.23,0,.34-.02.33-.18.43-.49.35-.89-.25-1.8-.37-2.72-.42-1.42-.07-2.83.13-4.16.62-4.47,1.65-7.18,4.85-7.74,9.56-.56,4.65,1.28,8.36,5.14,11.04.32.22.66.43.96.69h0Z"/>
      <path class="cls-2" d="M43.72,103.56c.17-.05.27.09.39.16,2.9,1.77,6.04,2.93,9.4,3.47,1.69.27,3.39.39,5.11.3,5.72-.3,10.83-2.2,15.25-5.85,4.26-3.52,7.09-7.96,8.5-13.3.45-1.68.69-3.4.78-5.14.05-1,.05-2,.05-3v-26.36c.22-.06.32.11.45.19,3.06,2.09,6.37,3.65,9.95,4.63,1.97.54,3.96.9,5.99,1.08.85.07,1.71.06,2.56.13.37.03.38.01.38-.38,0-.41,0-.82,0-1.23v-8.72c0-.18.01-.36.02-.54.77.09,1.52.25,2.29.31.47.04.95.08,1.42.07.23,0,.34.07.31.31-.01.1,0,.2,0,.29v12.86c-.01.37-.01.37-.4.37-1.32,0-2.63-.09-3.93-.26-2.66-.35-5.25-1-7.76-1.98-2.4-.94-4.65-2.13-6.77-3.58-.13-.09-.27-.17-.47-.31v.59c0,9.18,0,18.37,0,27.55,0,4.89-1.27,9.44-3.88,13.59-3.15,5.01-7.53,8.53-13.1,10.55-3.38,1.23-6.87,1.7-10.46,1.43-6.05-.45-11.29-2.76-15.75-6.86-.12-.11-.22-.24-.33-.36h0Z"/>
      <path class="cls-2" d="M83.37,30c-.18,0-.36.02-.54.02h-8.88c-.46,0-.69.22-.69.67,0,18.07,0,36.14,0,54.21,0,1.26-.09,2.49-.49,3.69-1.39,4.23-4.22,7.02-8.56,8.01-4.65,1.06-8.6-.36-11.74-3.96-.05-.06-.09-.14-.13-.2.9.36,1.8.72,2.75.9,3.03.6,5.89.14,8.52-1.48,3.04-1.87,4.83-4.62,5.46-8.12.12-.66.14-1.33.14-2.01V27.41c0-.85-.12-.74.72-.74h12.82c.43,0,.43,0,.43.44,0,.97-.02,1.93.18,2.89h0Z"/>
      <path class="cls-2" d="M61.03,59.69c-2.55.09-5.05.49-7.47,1.3-3.5,1.16-6.62,2.99-9.33,5.49-3.56,3.28-5.99,7.26-7.32,11.91-.47,1.66-.75,3.35-.87,5.08-.07,1.03-.09,2.07-.04,3.1.15,2.87.75,5.64,1.84,8.31,1.22,2.98,2.92,5.64,5.14,7.97.04.05.07.11.11.16-.5-.22-.91-.58-1.33-.92-4.14-3.28-7.06-7.42-8.67-12.47-.56-1.75-.91-3.55-1.08-5.39-.12-1.33-.14-2.66-.05-3.99.2-3.05.92-5.99,2.18-8.79,1.32-2.92,3.12-5.51,5.41-7.76,2.67-2.61,5.75-4.57,9.27-5.83,2.2-.79,4.47-1.27,6.81-1.44,1.7-.13,3.38-.09,5.06.11.23.03.36.07.36.34-.02.94-.02,1.87-.02,2.81h0Z"/>
      <path class="cls-2" d="M52.14,92.23c-1.03-.47-1.92-1.14-2.72-1.91-2.03-1.95-3.23-4.33-3.55-7.12-.66-5.86,3.04-10.92,8.17-12.49,2.19-.67,4.38-.69,6.59-.1.12.03.24.09.38.05.07-.18.04-.36.04-.54v-9.85c0-.18.02-.36.03-.54,1.27-.09,2.53.03,3.78.17.2.02.25.11.25.29v13.35c0,.16.04.33-.06.5-.57-.11-1.14-.28-1.72-.36-3.36-.47-6.39.32-9.06,2.41-2.34,1.84-3.78,4.27-4.26,7.2-.51,3.11.13,6,1.92,8.62.07.11.14.22.21.33h0Z"/>
      <path class="cls-2" d="M92.01,42.89c-1.26-.75-2.37-1.69-3.39-2.74-2.74-2.81-4.46-6.16-5.19-10.01,0-.03,0-.07,0-.1,1.18-.07,2.36,0,3.54-.03.21,0,.3.08.28.29,0,.08,0,.16,0,.25-.06,3.31.92,6.33,2.53,9.18.58,1.02,1.26,1.95,2.02,2.85.08.1.2.18.22.32h0Z"/>
      <path class="cls-2" d="M102.5,48.94c-3.37-.72-6.33-2.24-8.89-4.52-.38-.34-.77-.67-1.07-1.08.13-.01.22.06.31.12,2.04,1.17,4.22,1.93,6.54,2.31.9.15,1.82.25,2.74.24.38,0,.39.01.39.38,0,.85-.01,1.7-.02,2.55Z"/>
    </g>
  </g>
</svg>