<?xml version="1.0" encoding="UTF-8"?>
<svg id="Camada_2" data-name="Camada 2" xmlns="http://www.w3.org/2000/svg" viewBox="0 0 135.72 135.72">
  <defs>
    <style>
      .cls-1 {
        fill: #fff;
      }
    </style>
  </defs>
  <g id="Camada_1-2" data-name="Camada 1">
    <g>
      <path class="cls-1" d="M135.72,67.86C135.72,30.38,105.34,0,67.86,0S0,30.38,0,67.86s30.38,67.86,67.86,67.86,67.86-30.38,67.86-67.86Z"/>
      <path d="M69.71,25.83c4.6-.07,9.16-.03,13.72-.07.15,5.7,2.47,10.84,6.15,14.64h0c3.96,3.56,9.12,5.88,14.8,6.27h.08v14.15c-5.37-.13-10.42-1.37-14.97-3.5l.23.1c-2.2-1.06-4.06-2.15-5.83-3.36l.15.1c-.03,10.25.03,20.49-.07,30.7-.29,5.2-2.02,9.95-4.79,13.91l.06-.09c-4.64,6.64-12.15,11-20.7,11.26h-.04c-.35.02-.75.03-1.16.03-4.86,0-9.4-1.35-13.27-3.7l.11.06c-7.04-4.24-11.9-11.49-12.8-19.92v-.12c-.08-1.76-.12-3.51-.04-5.23,1.38-13.42,12.62-23.8,26.29-23.8,1.54,0,3.04.13,4.5.38l-.16-.02c.07,5.19-.14,10.39-.14,15.58-1.19-.43-2.56-.68-3.99-.68-5.25,0-9.71,3.35-11.36,8.03l-.03.08c-.37,1.2-.59,2.58-.59,4,0,.58.04,1.15.1,1.71v-.07c.93,5.75,5.85,10.08,11.79,10.08.17,0,.34,0,.51-.01h-.03c4.11-.12,7.67-2.33,9.69-5.6l.03-.05c.75-1.04,1.26-2.31,1.43-3.68v-.04c.35-6.28.21-12.53.25-18.81.03-14.14-.03-28.25.07-42.35h.01Z"/>
    </g>
  </g>
</svg>